<svg width="12" height="7" viewBox="0 0 12 7" fill="none" xmlns="http://www.w3.org/2000/svg">
<path d="M0.315363 0.316477C0.735847 -0.105493 1.41759 -0.105493 1.83807 0.316477L6.65998 5.15542C7.08046 5.57739 7.08046 6.26154 6.65998 6.68351C6.23949 7.10548 5.55775 7.10548 5.13727 6.68351L0.315363 1.84456C-0.105122 1.42259 -0.105122 0.738447 0.315363 0.316477Z" fill="#2A79CC"/>
<path d="M11.6846 0.31649C12.1051 0.73846 12.1051 1.42261 11.6846 1.84458L6.86273 6.68352C6.44224 7.10549 5.76051 7.10549 5.34002 6.68352C4.91954 6.26155 4.91954 5.5774 5.34002 5.15543L10.1619 0.31649C10.5824 -0.10548 11.2642 -0.10548 11.6846 0.31649Z" fill="#2A79CC"/>
</svg>
