<svg width="10" height="17" viewBox="0 0 10 17" fill="none" xmlns="http://www.w3.org/2000/svg">
<path d="M9.54789 16.5532C10.1507 15.9576 10.1507 14.9918 9.54789 14.3961L2.63511 7.56503C2.0323 6.96935 1.05494 6.96935 0.452128 7.56503C-0.150685 8.16072 -0.150685 9.12651 0.452128 9.7222L7.36491 16.5532C7.96772 17.1489 8.94508 17.1489 9.54789 16.5532Z" fill="#2A79CC"/>
<path d="M9.54787 0.446764C8.94506 -0.148921 7.9677 -0.148921 7.36489 0.446764L0.452111 7.2778C-0.150702 7.87349 -0.150702 8.83928 0.452111 9.43497C1.05492 10.0307 2.03228 10.0307 2.63509 9.43497L9.54787 2.60393C10.1507 2.00825 10.1507 1.04245 9.54787 0.446764Z" fill="#2A79CC"/>
</svg>
