<svg width="10" height="17" viewBox="0 0 10 17" fill="none" xmlns="http://www.w3.org/2000/svg">
<path d="M0.45211 16.5532C-0.150703 15.9576 -0.150704 14.9918 0.45211 14.3961L7.36489 7.56503C7.9677 6.96935 8.94506 6.96935 9.54787 7.56503C10.1507 8.16072 10.1507 9.12651 9.54787 9.7222L2.63509 16.5532C2.03228 17.1489 1.05492 17.1489 0.45211 16.5532Z" fill="#2A79CC"/>
<path d="M0.452129 0.446764C1.05494 -0.148921 2.0323 -0.148921 2.63511 0.446764L9.54789 7.2778C10.1507 7.87349 10.1507 8.83928 9.54789 9.43497C8.94508 10.0307 7.96772 10.0307 7.36491 9.43497L0.452129 2.60393C-0.150685 2.00825 -0.150685 1.04245 0.452129 0.446764Z" fill="#2A79CC"/>
</svg>
