<svg width="60" height="54" viewBox="0 0 60 54" fill="none" xmlns="http://www.w3.org/2000/svg">
<path d="M30 54L60 0H0L30 54Z" fill="#2A79CC"/>
<path d="M27.1213 27C24.5778 26.9875 22.3707 25.1443 22.0473 22.6602C21.8463 21.1373 22.2833 19.7684 23.4065 18.6658C25.3688 16.7476 27.3529 14.8544 29.3677 12.9862C30.4209 12.0084 31.7233 11.7671 33.1131 12.2206C34.5029 12.6741 35.3332 13.6353 35.5692 15.0209C35.7659 16.1734 35.4207 17.2012 34.5597 18.0333C32.6498 19.8724 30.7225 21.6991 28.7995 23.5215C28.1746 24.1124 27.4141 24.3038 26.5707 24.0666C25.7315 23.8336 25.2115 23.2802 25.0279 22.4688C24.8793 21.7989 25.0498 21.1914 25.513 20.663C25.5655 20.6047 25.6223 20.5507 25.6791 20.4966C27.5977 18.6741 29.5119 16.8516 31.4305 15.0292C31.8763 14.6048 32.5537 14.7587 32.7067 15.3163C32.7853 15.5992 32.6717 15.8281 32.4575 16.0278C31.212 17.2136 29.9664 18.3995 28.7209 19.5895C28.0522 20.2261 27.3835 20.8669 26.7149 21.5035C26.4876 21.7199 26.4046 21.9737 26.4964 22.2649C26.6275 22.6935 27.165 22.8974 27.5758 22.6769C27.6589 22.6352 27.7332 22.5728 27.7987 22.5104C29.7086 20.7004 31.6184 18.8905 33.5195 17.0722C34.4854 16.1485 34.4461 14.7546 33.454 13.9141C32.6061 13.1942 31.2994 13.1942 30.469 13.9307C30.0364 14.3135 29.6299 14.7171 29.2104 15.1166C27.6632 16.5853 26.1118 18.05 24.5778 19.5312C22.8078 21.2372 23.2273 24.0125 25.4212 25.1692C26.8635 25.9307 28.6553 25.6976 29.8528 24.5701C30.8929 23.5922 31.9244 22.5978 32.9601 21.6117C34.2101 20.4217 35.46 19.2275 36.7143 18.0375C36.9852 17.7795 37.3043 17.7254 37.6102 17.8752C37.8987 18.0167 38.056 18.3038 37.9817 18.6242C37.9511 18.7573 37.8724 18.9029 37.7719 18.9986C35.46 21.2122 33.1524 23.4258 30.823 25.6186C29.8135 26.5465 28.5854 26.9792 27.1213 27Z" fill="white"/>
</svg>
