<svg width="38" height="30" viewBox="0 0 38 30" fill="none" xmlns="http://www.w3.org/2000/svg">
<path d="M36.8298 16.4778C36.5995 16.4355 36.3522 16.427 36.1305 16.3422C35.7723 16.1982 35.6359 15.8931 35.6615 15.5202C35.6785 15.1812 35.8917 14.9438 36.1987 14.893C36.5825 14.8337 36.9833 14.8082 37.367 14.8591C37.7934 14.9184 38.0237 15.2574 37.9981 15.6303C37.964 16.0541 37.674 16.3677 37.2562 16.4185C37.1197 16.4355 36.9747 16.4185 36.8298 16.4185C36.8383 16.4524 36.8383 16.4609 36.8298 16.4778Z" fill="#0E192E"/>
<path d="M33.376 16.444C32.6256 16.444 32.3015 16.249 32.2163 15.732C32.1907 15.5964 32.1992 15.4439 32.2504 15.3252C32.4209 14.876 33.2055 14.6557 33.828 14.8591C34.2373 14.9947 34.4932 15.5117 34.3823 15.9693C34.3056 16.3168 34.0412 16.444 33.376 16.444Z" fill="#0E192E"/>
<path d="M24.004 16.8084C24.1575 16.9609 24.311 17.105 24.4475 17.266C24.746 17.6474 24.7033 18.1475 24.3622 18.4526C24.0637 18.7153 23.5606 18.6983 23.2451 18.3848C22.4776 17.6305 21.7101 16.8762 20.9511 16.1049C20.5929 15.7405 20.5162 15.2913 20.8317 14.9608C21.6674 14.0794 22.5373 13.2149 23.4242 12.3844C23.7738 12.0538 24.149 12.147 24.439 12.5454C24.7545 12.9691 24.7289 13.3675 24.3537 13.7658C24.0296 14.1048 23.697 14.4269 23.2962 14.8252C25.5902 14.8252 27.7648 14.8252 29.9308 14.8252C29.9991 14.8252 30.0673 14.8167 30.1696 14.8082C30.127 7.73149 24.3963 0.451338 15.8259 0.0191049C7.36642 -0.396178 0.467477 6.01104 0.0240347 14.1387C-0.453519 22.7918 6.24929 29.6652 14.4359 29.9872C23.1683 30.3347 29.6238 23.5292 30.1611 16.2999C27.9609 16.2999 25.7693 16.2999 23.4668 16.2999C23.6885 16.5118 23.8505 16.6558 24.004 16.8084ZM18.606 15.7914C18.9983 18.1729 19.382 20.5544 19.7572 22.9359C19.7999 23.2156 19.7913 23.5292 19.7231 23.8089C19.6208 24.1902 19.3308 24.4021 18.8959 24.4021C17.6338 24.3936 16.3632 24.4021 15.1011 24.4021C13.8646 24.4021 12.628 24.4021 11.3915 24.4021C10.6837 24.4021 10.2659 23.9275 10.3852 23.2156C10.7775 20.7917 11.1698 18.3678 11.5791 15.9439C11.6303 15.6642 11.5706 15.4863 11.3659 15.2829C9.15725 13.0963 9.02933 9.68925 11.1357 7.59589C12.7474 5.99409 14.7259 5.5449 16.8663 6.28224C19.0238 7.02806 20.3201 8.57901 20.5333 10.8758C20.6868 12.52 20.0557 13.9184 18.8703 15.0625C18.6316 15.2829 18.5548 15.4863 18.606 15.7914Z" fill="#0E192E"/>
</svg>
