<svg width="100" height="90" viewBox="0 0 100 90" fill="none" xmlns="http://www.w3.org/2000/svg">
<path d="M50 90L100 7.15256e-07H0L50 90Z" fill="#E8EFF5"/>
<path d="M55.5771 45.415C56.7117 45.415 57.7842 45.415 58.849 45.415C59.4629 48.0358 58.1573 50.9812 55.8025 52.2956C53.5409 53.5545 50.6965 53.0953 48.8857 51.1633C47.922 50.134 47.3469 48.8988 47.3314 47.4657C47.2925 44.3381 47.308 41.2106 47.308 38.083C47.308 36.4995 47.308 34.9159 47.308 33.3323C47.308 33.2136 47.308 33.0948 47.2925 32.976C47.1992 32.2238 46.5542 31.9467 45.9558 32.398C45.3107 32.881 44.6735 33.3798 43.9895 33.9024C43.329 33.0631 42.6839 32.2397 42 31.3766C42.2098 31.2024 42.4041 31.0361 42.6062 30.8699C44.2771 29.508 45.9402 28.1461 47.6111 26.7922C48.1163 26.3804 48.6836 26.0954 49.3287 26.4121C50.0126 26.7526 50.2924 27.3543 50.2924 28.1303C50.2846 34.425 50.2846 40.7118 50.2924 47.0065C50.2924 48.6771 51.5281 49.8727 53.1212 49.7777C54.4657 49.6985 55.5305 48.6059 55.5771 47.2361C55.5926 46.6502 55.5771 46.0563 55.5771 45.415Z" fill="#2A79CC"/>
<path d="M51.6058 19.0327C51.6058 20.7192 50.2768 22.0811 48.6215 22.0811C46.9739 22.0811 45.6216 20.7033 45.6371 19.0327C45.6527 17.362 47.0127 15.9843 48.6448 16.0001C50.2768 16.016 51.6058 17.3699 51.6058 19.0327Z" fill="#2A79CC"/>
<path d="M55.5771 45.415C56.7117 45.415 57.7842 45.415 58.849 45.415C59.4629 48.0358 58.1573 50.9812 55.8025 52.2956C53.5409 53.5545 50.6965 53.0953 48.8857 51.1633C47.922 50.134 47.3469 48.8988 47.3314 47.4657C47.2925 44.3381 47.308 41.2106 47.308 38.083C47.308 36.4995 47.308 34.9159 47.308 33.3323C47.308 33.2136 47.308 33.0948 47.2925 32.976C47.1992 32.2238 46.5542 31.9467 45.9558 32.398C45.3107 32.881 44.6735 33.3798 43.9895 33.9024C43.329 33.0631 42.6839 32.2397 42 31.3766C42.2098 31.2024 42.4041 31.0361 42.6062 30.8699C44.2771 29.508 45.9402 28.1461 47.6111 26.7922C48.1163 26.3804 48.6836 26.0954 49.3287 26.4121C50.0126 26.7526 50.2924 27.3543 50.2924 28.1303C50.2846 34.425 50.2846 40.7118 50.2924 47.0065C50.2924 48.6771 51.5281 49.8727 53.1212 49.7777C54.4657 49.6985 55.5305 48.6059 55.5771 47.2361C55.5926 46.6502 55.5771 46.0563 55.5771 45.415Z" stroke="#2A79CC"/>
<path d="M51.6058 19.0327C51.6058 20.7192 50.2768 22.0811 48.6215 22.0811C46.9739 22.0811 45.6216 20.7033 45.6371 19.0327C45.6527 17.362 47.0127 15.9843 48.6448 16.0001C50.2768 16.016 51.6058 17.3699 51.6058 19.0327Z" stroke="#2A79CC"/>
</svg>
